<?xml version="1.0" encoding="UTF-8"?>
<svg xmlns="http://www.w3.org/2000/svg" xmlns:xlink="http://www.w3.org/1999/xlink" width="74px" height="72px" viewBox="0 0 73 72" version="1.1">
<g id="surface1">
<path style=" stroke:none;fill-rule:nonzero;fill:rgb(0%,11.764706%,21.176471%);fill-opacity:1;" d="M 12.925781 0 L 60.074219 0 C 67.210938 0 73 5.855469 73 13.078125 L 73 58.921875 C 73 66.144531 67.210938 72 60.074219 72 L 12.925781 72 C 5.789062 72 0 66.144531 0 58.921875 L 0 13.078125 C 0 5.855469 5.789062 0 12.925781 0 Z M 12.925781 0 "/>
<path style=" stroke:none;fill-rule:nonzero;fill:rgb(19.215686%,65.882353%,100%);fill-opacity:1;" d="M 16.4375 50.492188 L 16.4375 18.835938 C 16.4375 18.605469 16.535156 18.488281 16.730469 18.488281 C 17.253906 18.488281 17.730469 18.480469 18.449219 18.464844 C 19.167969 18.449219 19.941406 18.429688 20.773438 18.414062 C 21.605469 18.398438 22.488281 18.382812 23.417969 18.363281 C 24.347656 18.347656 25.269531 18.339844 26.1875 18.339844 C 28.667969 18.339844 30.753906 18.652344 32.453125 19.28125 C 33.984375 19.804688 35.382812 20.667969 36.542969 21.808594 C 37.527344 22.796875 38.285156 23.988281 38.769531 25.300781 C 39.230469 26.578125 39.460938 27.929688 39.457031 29.289062 C 39.457031 31.929688 38.851562 34.109375 37.644531 35.828125 C 36.429688 37.550781 34.71875 38.855469 32.746094 39.566406 C 30.691406 40.34375 28.40625 40.605469 25.890625 40.605469 C 25.171875 40.605469 24.667969 40.597656 24.375 40.582031 C 24.078125 40.566406 23.640625 40.558594 23.050781 40.558594 L 23.050781 50.441406 C 23.070312 50.5625 23.027344 50.6875 22.941406 50.777344 C 22.855469 50.863281 22.730469 50.90625 22.609375 50.886719 L 16.78125 50.886719 C 16.550781 50.886719 16.4375 50.753906 16.4375 50.492188 Z M 23.050781 24.433594 L 23.050781 34.757812 C 23.476562 34.792969 23.867188 34.808594 24.226562 34.808594 L 25.84375 34.808594 C 27.03125 34.804688 28.214844 34.613281 29.34375 34.242188 C 30.316406 33.949219 31.179688 33.382812 31.84375 32.609375 C 32.476562 31.847656 32.796875 30.792969 32.796875 29.4375 C 32.824219 28.480469 32.574219 27.53125 32.085938 26.710938 C 31.570312 25.917969 30.828125 25.304688 29.957031 24.953125 C 28.816406 24.507812 27.601562 24.296875 26.382812 24.335938 C 25.597656 24.335938 24.902344 24.34375 24.300781 24.359375 C 23.695312 24.375 23.28125 24.402344 23.050781 24.433594 Z M 23.050781 24.433594 "/>
<path style=" stroke:none;fill-rule:nonzero;fill:rgb(19.215686%,65.882353%,100%);fill-opacity:1;" d="M 58.390625 32.882812 C 57.472656 32.402344 56.492188 32.050781 55.476562 31.839844 C 54.359375 31.582031 53.21875 31.449219 52.074219 31.445312 C 51.453125 31.425781 50.835938 31.503906 50.238281 31.667969 C 49.855469 31.753906 49.519531 31.972656 49.28125 32.285156 C 49.121094 32.539062 49.039062 32.828125 49.039062 33.128906 C 49.046875 33.417969 49.148438 33.695312 49.332031 33.921875 C 49.617188 34.257812 49.96875 34.539062 50.359375 34.738281 C 51.058594 35.117188 51.777344 35.457031 52.515625 35.753906 C 54.15625 36.3125 55.730469 37.066406 57.191406 38.007812 C 58.1875 38.644531 59.011719 39.519531 59.589844 40.558594 C 60.078125 41.542969 60.320312 42.628906 60.300781 43.730469 C 60.332031 45.179688 59.921875 46.609375 59.125 47.816406 C 58.273438 49.042969 57.09375 50 55.722656 50.566406 C 54.234375 51.226562 52.398438 51.558594 50.214844 51.558594 C 48.824219 51.570312 47.4375 51.4375 46.074219 51.160156 C 45.003906 50.960938 43.957031 50.628906 42.964844 50.167969 C 42.746094 50.054688 42.613281 49.824219 42.621094 49.574219 L 42.621094 44.226562 C 42.609375 44.117188 42.65625 44.015625 42.746094 43.953125 C 42.832031 43.902344 42.9375 43.914062 43.015625 43.976562 C 44.1875 44.675781 45.457031 45.1875 46.785156 45.488281 C 47.953125 45.785156 49.15625 45.941406 50.359375 45.960938 C 51.503906 45.960938 52.34375 45.808594 52.882812 45.511719 C 53.378906 45.28125 53.695312 44.777344 53.691406 44.226562 C 53.691406 43.796875 53.445312 43.382812 52.957031 42.988281 C 52.464844 42.589844 51.46875 42.113281 49.96875 41.550781 C 48.429688 41.007812 46.972656 40.257812 45.632812 39.320312 C 44.675781 38.648438 43.890625 37.757812 43.332031 36.71875 C 42.851562 35.742188 42.609375 34.664062 42.621094 33.574219 C 42.621094 32.265625 42.976562 30.976562 43.652344 29.859375 C 44.421875 28.628906 45.527344 27.648438 46.835938 27.035156 C 48.269531 26.308594 50.066406 25.945312 52.222656 25.945312 C 53.484375 25.933594 54.742188 26.027344 55.992188 26.21875 C 56.894531 26.332031 57.777344 26.574219 58.617188 26.9375 C 58.75 26.976562 58.859375 27.078125 58.910156 27.207031 C 58.945312 27.328125 58.960938 27.453125 58.960938 27.582031 L 58.960938 32.582031 C 58.964844 32.703125 58.910156 32.816406 58.8125 32.882812 C 58.679688 32.949219 58.523438 32.949219 58.390625 32.882812 Z M 58.390625 32.882812 "/>
</g>
</svg>
